<svg width="128" height="41" viewBox="0 0 128 41" fill="none" xmlns="http://www.w3.org/2000/svg">
    <path d="M15.6331 26.9891C15.0767 26.4494 14.3873 26.1796 13.5649 26.1796C12.7666 26.1796 12.0833 26.4494 11.5148 26.9891C10.9463 27.5288 10.6621 28.2183 10.6621 29.0578C10.6621 29.8973 10.9463 30.5808 11.5148 31.1085C12.0833 31.6362 12.7666 31.9 13.5649 31.9C14.3873 31.9 15.0767 31.6362 15.6331 31.1085C16.1895 30.5808 16.4676 29.8973 16.4676 29.0578C16.4676 28.2183 16.1895 27.5288 15.6331 26.9891Z" fill="#FF4A8B"/>
    <path d="M26.7362 26.9891C26.1798 26.4494 25.4904 26.1796 24.668 26.1796C23.8697 26.1796 23.1863 26.4494 22.6179 26.9891C22.0494 27.5288 21.7652 28.2183 21.7652 29.0578C21.7652 29.8973 22.0494 30.5808 22.6179 31.1085C23.1863 31.6362 23.8697 31.9 24.668 31.9C25.4904 31.9 26.1798 31.6362 26.7362 31.1085C27.2926 30.5808 27.5707 29.8973 27.5707 29.0578C27.5707 28.2183 27.2926 27.5288 26.7362 26.9891Z" fill="#FF4A8B"/>
    <path d="M15.9234 6.5H11.2427V13.1918C11.2427 14.2171 11.2624 15.2018 11.3018 16.1455C10.9767 16.2522 10.6541 16.3659 10.334 16.4867C7.62408 17.5093 5.20183 18.8979 3.06731 20.6525L3 20.7081L4.86261 23.5113C6.85827 22.0602 9.04794 20.9279 11.4316 20.1144C11.4861 20.0958 11.5407 20.0775 11.5952 20.0593C11.7111 21.1809 11.8488 22.3052 12.0082 23.4323L12.0409 23.6612H15.1614C15.3589 22.138 15.5265 20.6248 15.6642 19.1213C16.7769 18.9699 17.9216 18.8942 19.0983 18.8942C20.3003 18.8942 21.47 18.9732 22.6074 19.1312C22.7399 20.5605 22.9078 21.9942 23.1113 23.4323L23.144 23.6612H26.2645C26.4201 22.4609 26.5572 21.2668 26.6757 20.0788L26.7816 20.1144C29.1482 20.9183 31.309 22.0336 33.2642 23.4602L33.334 23.5113L35.1966 20.7081C33.0457 18.9272 30.601 17.5201 27.8625 16.4867C27.5662 16.3749 27.2678 16.2691 26.9673 16.1695C27.0053 15.2575 27.025 14.3032 27.0264 13.3065L27.0265 6.5H22.3458V13.1918C22.3458 13.8572 22.3541 14.5054 22.3707 15.1364C21.3035 15.0033 20.2127 14.9367 19.0983 14.9367C18.0094 14.9367 16.943 15.0003 15.8992 15.1275C15.9144 14.537 15.9224 13.93 15.9233 13.3065L15.9234 6.5Z" fill="#FF4A8B"/>
    <path fill-rule="evenodd" clip-rule="evenodd" d="M42.518 11.792V27.5H50.13C50.834 27.5 51.516 27.412 52.176 27.236C52.8507 27.06 53.4447 26.7887 53.958 26.422C54.486 26.0553 54.904 25.586 55.212 25.014C55.52 24.4273 55.674 23.738 55.674 22.946C55.674 21.9633 55.432 21.1273 54.948 20.438C54.4787 19.734 53.76 19.2427 52.792 18.964C53.496 18.6267 54.024 18.194 54.376 17.666C54.7427 17.138 54.926 16.478 54.926 15.686C54.926 14.9527 54.8013 14.3367 54.552 13.838C54.3173 13.3393 53.98 12.9433 53.54 12.65C53.1 12.342 52.572 12.122 51.956 11.99C51.34 11.858 50.658 11.792 49.91 11.792H42.518ZM45.972 18.15V14.476H49.206C49.514 14.476 49.8073 14.5053 50.086 14.564C50.3793 14.608 50.636 14.696 50.856 14.828C51.076 14.96 51.252 15.1433 51.384 15.378C51.516 15.6127 51.582 15.9133 51.582 16.28C51.582 16.94 51.384 17.4167 50.988 17.71C50.592 18.0033 50.086 18.15 49.47 18.15H45.972ZM45.972 24.816V20.504H49.734C50.482 20.504 51.0833 20.68 51.538 21.032C51.9927 21.3693 52.22 21.9413 52.22 22.748C52.22 23.1587 52.1467 23.496 52 23.76C51.868 24.024 51.6847 24.2367 51.45 24.398C51.2153 24.5447 50.944 24.6547 50.636 24.728C50.328 24.7867 50.0053 24.816 49.668 24.816H45.972Z" fill="#FF4A8B"/>
    <path d="M71.3402 21.56V11.792H67.8862V21.56C67.8862 22.7333 67.6516 23.5987 67.1822 24.156C66.7129 24.6987 65.8622 24.97 64.6302 24.97C63.9262 24.97 63.3616 24.8747 62.9362 24.684C62.5256 24.4787 62.2029 24.222 61.9682 23.914C61.7336 23.5913 61.5796 23.2247 61.5062 22.814C61.4329 22.4033 61.3962 21.9853 61.3962 21.56V11.792H57.9422V21.56C57.9422 23.7013 58.5216 25.2853 59.6802 26.312C60.8536 27.3387 62.5036 27.852 64.6302 27.852C66.7276 27.852 68.3702 27.3387 69.5582 26.312C70.7462 25.2707 71.3402 23.6867 71.3402 21.56Z" fill="#FF4A8B"/>
    <path d="M74.3149 27.5V11.792H77.7469L84.3029 22.33H84.3469V11.792H87.5809V27.5H84.1269L77.5929 16.984H77.5489V27.5H74.3149Z" fill="#FF4A8B"/>
    <path d="M90.6215 11.792V27.5H93.8555V16.984H93.8995L100.434 27.5H103.888V11.792H100.654V22.33H100.61L94.0535 11.792H90.6215Z" fill="#FF4A8B"/>
    <path d="M110.998 27.5V21.384L105.234 11.792H109.106L112.78 17.996L116.432 11.792H120.282L114.452 21.472V27.5H110.998Z" fill="#FF4A8B"/>
</svg>